<svg width="37" height="37" viewBox="0 0 37 37" fill="none" xmlns="http://www.w3.org/2000/svg">
<g id="g32">
<g id="g34">
<path id="path46" d="M24.4088 36.6757L16.4846 36.7166C13.531 36.7319 11.1137 34.3057 11.0987 31.3062L11.0703 25.6397L1.03503 25.6915C0.53488 25.6941 0.125853 25.2833 0.123308 24.7757L0.0829801 16.7314C0.0679544 13.7343 2.4611 11.2833 5.41439 11.2681L10.9981 11.2392L10.947 1.05058C10.9461 0.86089 11.0024 0.68329 11.1 0.534625C11.2615 0.288472 11.5359 0.126744 11.8492 0.125127L19.7737 0.0842111C22.7294 0.0689501 25.1443 2.49751 25.1593 5.49711L25.1878 11.166L35.2255 11.1141C35.7255 11.1116 36.1347 11.5199 36.1372 12.03L36.1775 20.0694C36.1926 23.069 33.7993 25.5224 30.8438 25.5376L25.26 25.5665L23.4461 25.5758L23.4839 33.1277L25.2685 27.2669L25.311 35.7505C25.3136 36.2605 24.9088 36.6731 24.4088 36.6757ZM17.2552 18.088C15.2999 18.0981 13.9878 19.4844 13.9978 21.4663L14.0111 24.1186L14.4708 24.3789C14.7199 24.3776 15.1916 24.2075 15.3576 24.3743C17.7521 24.6003 14.9142 24.3766 12.6686 24.1256C12.7987 24.2828 14.8342 23.5557 14.8353 23.7792L17.0686 24.3654C17.0786 26.3498 17.3973 25.2638 19.3528 25.2537L21.1629 25.5876L23.4461 25.5758L17.2929 25.6076C16.3763 25.6123 15.5248 25.3082 14.8404 24.792C14.5257 24.558 14.2464 24.2777 14.0103 23.9608C13.4922 23.2688 13.1818 22.4057 13.1771 21.4706C13.166 19.2531 14.8753 17.4274 17.0332 17.2997C17.1347 15.1108 18.9185 13.3552 21.1015 13.3439C23.3605 13.3323 25.2079 15.1881 25.2194 17.4809L25.2281 19.2095L23.4334 23.045L23.4368 23.7348L25.2507 23.7254L24.707 16.2259C26.6645 16.2158 26.8918 25.3991 26.8819 23.4148L22.4026 14.4377L24.2902 13.0117C23.79 13.0143 23.381 12.6035 23.3785 12.0959L23.3455 5.50647C23.3355 3.52213 25.8335 14.42 23.8808 14.4301L21.9592 14.44L17.8053 16.6399C17.8079 17.1476 19.33 21.7436 13.989 16.7312L17.2552 18.088ZM17.2604 19.1348C16.004 19.1413 14.9846 20.1861 14.991 21.4612C14.9974 22.7388 16.0272 23.773 17.2837 23.7665L23.4368 23.7348L23.4055 17.4903C23.3992 16.2151 22.3696 15.1785 21.1107 15.185C19.8542 15.1915 18.8349 16.2387 18.8413 17.5138C18.8422 17.7057 18.865 17.895 18.9114 18.0794C18.9919 18.3923 18.9026 18.7231 18.6762 18.955C18.5059 19.1298 18.2766 19.226 18.0404 19.2272C17.9667 19.2276 17.892 19.2187 17.8182 19.1999C17.6361 19.1547 17.4493 19.1338 17.2604 19.1348Z" fill="#3497F9"/>
</g>
<g id="Group 217">
<g id="g48">
<g id="g50">
<g id="g56">
<rect id="image58" width="1.795" height="7.83304" transform="matrix(0.999987 -0.00516318 0.0050132 0.999987 23.4451 25.2961)" fill="#3497F9"/>
</g>
</g>
</g>
<g id="g60">
<g id="g62">
<g id="g68">
<rect id="image70" width="1.795" height="4.91842" transform="matrix(0.999987 -0.00516313 0.00501324 0.999987 23.4062 18.9202)" fill="#3497F9"/>
</g>
</g>
</g>
</g>
</g>
</svg>
