<svg width="20" height="20" viewBox="0 0 20 20" fill="none" xmlns="http://www.w3.org/2000/svg">
<path d="M10 12.5C11.3807 12.5 12.5 11.3807 12.5 10C12.5 8.61929 11.3807 7.5 10 7.5C8.61929 7.5 7.5 8.61929 7.5 10C7.5 11.3807 8.61929 12.5 10 12.5Z" stroke="white" stroke-width="1.5" stroke-miterlimit="10" stroke-linecap="round" stroke-linejoin="round"/>
<path d="M1.6665 10.7332V9.2665C1.6665 8.39983 2.37484 7.68316 3.24984 7.68316C4.75817 7.68316 5.37484 6.6165 4.6165 5.30816C4.18317 4.55816 4.4415 3.58316 5.19984 3.14983L6.6415 2.32483C7.29984 1.93316 8.14984 2.1665 8.5415 2.82483L8.63317 2.98316C9.38317 4.2915 10.6165 4.2915 11.3748 2.98316L11.4665 2.82483C11.8582 2.1665 12.7082 1.93316 13.3665 2.32483L14.8082 3.14983C15.5665 3.58316 15.8248 4.55816 15.3915 5.30816C14.6332 6.6165 15.2498 7.68316 16.7582 7.68316C17.6248 7.68316 18.3415 8.3915 18.3415 9.2665V10.7332C18.3415 11.5998 17.6332 12.3165 16.7582 12.3165C15.2498 12.3165 14.6332 13.3832 15.3915 14.6915C15.8248 15.4498 15.5665 16.4165 14.8082 16.8498L13.3665 17.6748C12.7082 18.0665 11.8582 17.8332 11.4665 17.1748L11.3748 17.0165C10.6248 15.7082 9.3915 15.7082 8.63317 17.0165L8.5415 17.1748C8.14984 17.8332 7.29984 18.0665 6.6415 17.6748L5.19984 16.8498C4.4415 16.4165 4.18317 15.4415 4.6165 14.6915C5.37484 13.3832 4.75817 12.3165 3.24984 12.3165C2.37484 12.3165 1.6665 11.5998 1.6665 10.7332Z" stroke="white" stroke-width="1.5" stroke-miterlimit="10" stroke-linecap="round" stroke-linejoin="round"/>
</svg>
